# Blender 3.6.0
# www.blender.org
mtllib sphere.mtl
o Sphere
v 0.000000 0.707107 -0.707107
v 0.000000 0.258819 -0.965926
v 0.000000 -0.258819 -0.965926
v 0.000000 -0.500000 -0.866025
v 0.129410 0.965926 -0.224144
v 0.250000 0.866025 -0.433013
v 0.353553 0.707107 -0.612372
v 0.433013 0.500000 -0.750000
v 0.482963 0.258819 -0.836516
v 0.500000 0.000000 -0.866025
v 0.482963 -0.258819 -0.836516
v 0.433013 -0.500000 -0.750000
v 0.353553 -0.707107 -0.612372
v 0.250000 -0.866025 -0.433013
v 0.129410 -0.965926 -0.224144
v 0.224144 0.965926 -0.129410
v 0.433013 0.866025 -0.250000
v 0.612372 0.707107 -0.353553
v 0.750000 0.500000 -0.433013
v 0.836516 0.258819 -0.482963
v 0.866025 0.000000 -0.500000
v 0.836516 -0.258819 -0.482963
v 0.750000 -0.500000 -0.433013
v 0.612372 -0.707107 -0.353553
v 0.433013 -0.866025 -0.250000
v 0.224144 -0.965926 -0.129410
v 0.258819 0.965926 0.000000
v 0.500000 0.866025 0.000000
v 0.707107 0.707107 0.000000
v 0.866025 0.500000 0.000000
v 0.965926 0.258819 0.000000
v 1.000000 0.000000 0.000000
v 0.965926 -0.258819 0.000000
v 0.866025 -0.500000 0.000000
v 0.707107 -0.707107 0.000000
v 0.500000 -0.866025 0.000000
v 0.258819 -0.965926 0.000000
v 0.224144 0.965926 0.129410
v 0.433013 0.866025 0.250000
v 0.612372 0.707107 0.353553
v 0.750000 0.500000 0.433013
v 0.836516 0.258819 0.482963
v 0.866025 0.000000 0.500000
v 0.836516 -0.258819 0.482963
v 0.750000 -0.500000 0.433013
v 0.612372 -0.707107 0.353553
v 0.433013 -0.866025 0.250000
v 0.224144 -0.965926 0.129410
v 0.129410 0.965926 0.224144
v 0.250000 0.866025 0.433013
v 0.353553 0.707107 0.612372
v 0.433013 0.500000 0.750000
v 0.482963 0.258819 0.836516
v 0.500000 0.000000 0.866025
v 0.482963 -0.258819 0.836516
v 0.433013 -0.500000 0.750000
v 0.353553 -0.707107 0.612372
v 0.250000 -0.866025 0.433013
v 0.129410 -0.965926 0.224144
v 0.000000 0.965926 0.258819
v 0.000000 0.866025 0.500000
v -0.000000 0.707107 0.707107
v -0.000000 0.500000 0.866025
v -0.000000 0.258819 0.965926
v 0.000000 0.000000 1.000000
v -0.000000 -0.258819 0.965926
v -0.000000 -0.500000 0.866025
v -0.000000 -0.707107 0.707107
v 0.000000 -0.866025 0.500000
v 0.000000 -0.965926 0.258819
v -0.129410 0.965926 0.224144
v -0.250000 0.866025 0.433013
v -0.353553 0.707107 0.612372
v -0.433013 0.500000 0.750000
v -0.482963 0.258819 0.836516
v -0.500000 0.000000 0.866025
v -0.482963 -0.258819 0.836516
v -0.433013 -0.500000 0.750000
v -0.353553 -0.707107 0.612372
v -0.250000 -0.866025 0.433013
v -0.129410 -0.965926 0.224144
v -0.224144 0.965926 0.129410
v -0.433013 0.866025 0.250000
v -0.612372 0.707107 0.353553
v -0.750000 0.500000 0.433013
v -0.836516 0.258819 0.482963
v -0.866025 0.000000 0.500000
v -0.836516 -0.258819 0.482963
v -0.750000 -0.500000 0.433013
v -0.612372 -0.707107 0.353553
v -0.433013 -0.866025 0.250000
v -0.224144 -0.965926 0.129410
v 0.000000 1.000000 0.000000
v -0.258819 0.965926 0.000000
v -0.500000 0.866025 0.000000
v -0.707107 0.707107 -0.000000
v -0.866025 0.500000 -0.000000
v -0.965926 0.258819 -0.000000
v -1.000000 0.000000 0.000000
v -0.965926 -0.258819 -0.000000
v -0.866025 -0.500000 -0.000000
v -0.707107 -0.707107 -0.000000
v -0.500000 -0.866025 0.000000
v -0.258819 -0.965926 0.000000
v -0.224144 0.965926 -0.129410
v -0.433013 0.866025 -0.250000
v -0.612372 0.707107 -0.353553
v -0.750000 0.500000 -0.433013
v -0.836516 0.258819 -0.482963
v -0.866025 0.000000 -0.500000
v -0.836516 -0.258819 -0.482963
v -0.750000 -0.500000 -0.433013
v -0.612372 -0.707107 -0.353553
v -0.433013 -0.866025 -0.250000
v -0.224144 -0.965926 -0.129410
v -0.129410 0.965926 -0.224144
v -0.250000 0.866025 -0.433013
v -0.353553 0.707107 -0.612372
v -0.433013 0.500000 -0.750000
v -0.482963 0.258819 -0.836516
v -0.500000 0.000000 -0.866025
v -0.482963 -0.258819 -0.836516
v -0.433013 -0.500000 -0.750000
v -0.353553 -0.707107 -0.612372
v -0.250000 -0.866025 -0.433013
v -0.129410 -0.965926 -0.224144
v 0.000000 0.965926 -0.258819
v 0.000000 0.866025 -0.500000
v 0.000000 0.500000 -0.866025
v 0.000000 0.000000 -1.000000
v 0.000000 -0.707107 -0.707107
v 0.000000 -0.866025 -0.500000
v 0.000000 -0.965926 -0.258819
v 0.000000 -1.000000 0.000000
vn 0.2568 0.1262 -0.9582
vn 0.1610 0.7830 -0.6008
vn 0.1610 -0.7830 -0.6008
vn 0.2568 -0.1262 -0.9582
vn 0.2079 0.5955 -0.7760
vn 0.1020 -0.9191 -0.3807
vn 0.0350 0.9908 -0.1304
vn 0.2403 -0.3715 -0.8968
vn 0.2403 0.3715 -0.8968
vn 0.0350 -0.9908 -0.1304
vn 0.1020 0.9191 -0.3807
vn 0.2079 -0.5955 -0.7760
vn 0.5681 0.5955 -0.5681
vn 0.2787 -0.9191 -0.2787
vn 0.0955 0.9908 -0.0955
vn 0.6565 -0.3715 -0.6565
vn 0.6565 0.3715 -0.6565
vn 0.0955 -0.9908 -0.0955
vn 0.2787 0.9191 -0.2787
vn 0.5681 -0.5955 -0.5681
vn 0.7015 0.1262 -0.7015
vn 0.4398 0.7830 -0.4398
vn 0.4398 -0.7830 -0.4398
vn 0.7015 -0.1262 -0.7015
vn 0.6008 0.7830 -0.1610
vn 0.6008 -0.7830 -0.1610
vn 0.9582 -0.1262 -0.2568
vn 0.7760 0.5955 -0.2079
vn 0.3807 -0.9191 -0.1020
vn 0.1304 0.9908 -0.0350
vn 0.8968 -0.3715 -0.2403
vn 0.8968 0.3715 -0.2403
vn 0.1304 -0.9908 -0.0350
vn 0.3807 0.9191 -0.1020
vn 0.7760 -0.5955 -0.2079
vn 0.9582 0.1262 -0.2568
vn 0.8968 0.3715 0.2403
vn 0.1304 -0.9908 0.0350
vn 0.3807 0.9191 0.1020
vn 0.7760 -0.5955 0.2079
vn 0.9582 0.1262 0.2568
vn 0.6008 0.7830 0.1610
vn 0.6008 -0.7830 0.1610
vn 0.9582 -0.1262 0.2568
vn 0.7760 0.5955 0.2079
vn 0.3807 -0.9191 0.1020
vn 0.1304 0.9908 0.0350
vn 0.8968 -0.3715 0.2403
vn 0.5681 0.5955 0.5681
vn 0.2787 -0.9191 0.2787
vn 0.0955 0.9908 0.0955
vn 0.6565 -0.3715 0.6565
vn 0.6565 0.3715 0.6565
vn 0.0955 -0.9908 0.0955
vn 0.2787 0.9191 0.2787
vn 0.5681 -0.5955 0.5681
vn 0.7015 0.1262 0.7015
vn 0.4398 0.7830 0.4398
vn 0.4398 -0.7830 0.4398
vn 0.7015 -0.1262 0.7015
vn 0.2568 0.1262 0.9582
vn 0.1610 0.7830 0.6008
vn 0.1610 -0.7830 0.6008
vn 0.2568 -0.1262 0.9582
vn 0.2079 0.5955 0.7760
vn 0.1020 -0.9191 0.3807
vn 0.0350 0.9908 0.1304
vn 0.2403 -0.3715 0.8968
vn 0.2403 0.3715 0.8968
vn 0.0350 -0.9908 0.1304
vn 0.1020 0.9191 0.3807
vn 0.2079 -0.5955 0.7760
vn -0.2403 0.3715 0.8968
vn -0.0350 -0.9908 0.1304
vn -0.1020 0.9191 0.3807
vn -0.2079 -0.5955 0.7760
vn -0.2568 0.1262 0.9582
vn -0.1610 0.7830 0.6008
vn -0.1610 -0.7830 0.6008
vn -0.2568 -0.1262 0.9582
vn -0.2079 0.5955 0.7760
vn -0.1020 -0.9191 0.3807
vn -0.0350 0.9908 0.1304
vn -0.2403 -0.3715 0.8968
vn -0.7015 -0.1262 0.7015
vn -0.5681 0.5955 0.5681
vn -0.2787 -0.9191 0.2787
vn -0.0955 0.9908 0.0955
vn -0.6565 -0.3715 0.6565
vn -0.6565 0.3715 0.6565
vn -0.0955 -0.9908 0.0955
vn -0.2787 0.9191 0.2787
vn -0.5681 -0.5955 0.5681
vn -0.7015 0.1262 0.7015
vn -0.4398 0.7830 0.4398
vn -0.4398 -0.7830 0.4398
vn -0.9582 0.1262 0.2568
vn -0.6008 0.7830 0.1610
vn -0.6008 -0.7830 0.1610
vn -0.9582 -0.1262 0.2568
vn -0.7760 0.5955 0.2079
vn -0.3807 -0.9191 0.1020
vn -0.1304 0.9908 0.0350
vn -0.8968 -0.3715 0.2403
vn -0.8968 0.3715 0.2403
vn -0.1304 -0.9908 0.0350
vn -0.3807 0.9191 0.1020
vn -0.7760 -0.5955 0.2079
vn -0.8968 -0.3715 -0.2403
vn -0.8968 0.3715 -0.2403
vn -0.1304 -0.9908 -0.0350
vn -0.3807 0.9191 -0.1020
vn -0.7760 -0.5955 -0.2079
vn -0.9582 0.1262 -0.2568
vn -0.6008 0.7830 -0.1610
vn -0.6008 -0.7830 -0.1610
vn -0.9582 -0.1262 -0.2568
vn -0.7760 0.5955 -0.2079
vn -0.3807 -0.9191 -0.1020
vn -0.1304 0.9908 -0.0350
vn -0.7015 -0.1262 -0.7015
vn -0.5681 0.5955 -0.5681
vn -0.2787 -0.9191 -0.2787
vn -0.0955 0.9908 -0.0955
vn -0.6565 -0.3715 -0.6565
vn -0.6565 0.3715 -0.6565
vn -0.0955 -0.9908 -0.0955
vn -0.2787 0.9191 -0.2787
vn -0.5681 -0.5955 -0.5681
vn -0.7015 0.1262 -0.7015
vn -0.4398 0.7830 -0.4398
vn -0.4398 -0.7830 -0.4398
vn -0.2079 -0.5955 -0.7760
vn -0.2568 0.1262 -0.9582
vn -0.1610 0.7830 -0.6008
vn -0.1610 -0.7830 -0.6008
vn -0.2568 -0.1262 -0.9582
vn -0.2079 0.5955 -0.7760
vn -0.1020 -0.9191 -0.3807
vn -0.0350 0.9908 -0.1304
vn -0.2403 -0.3715 -0.8968
vn -0.2403 0.3715 -0.8968
vn -0.0350 -0.9908 -0.1304
vn -0.1020 0.9191 -0.3807
vt 0.750000 0.583333
vt 0.666667 0.500000
vt 0.750000 0.500000
vt 0.750000 0.833333
vt 0.666667 0.750000
vt 0.750000 0.750000
vt 0.750000 0.250000
vt 0.666667 0.166667
vt 0.750000 0.166667
vt 0.750000 0.416667
vt 0.666667 0.416667
vt 0.750000 0.666667
vt 0.666667 0.666667
vt 0.750000 0.083333
vt 0.666667 0.083333
vt 0.750000 0.916667
vt 0.708333 1.000000
vt 0.666667 0.916667
vt 0.666667 0.333333
vt 0.750000 0.333333
vt 0.666667 0.583333
vt 0.708333 0.000000
vt 0.666667 0.833333
vt 0.666667 0.250000
vt 0.583333 0.666667
vt 0.583333 0.083333
vt 0.625000 1.000000
vt 0.583333 0.916667
vt 0.583333 0.333333
vt 0.583333 0.583333
vt 0.625000 0.000000
vt 0.583333 0.833333
vt 0.583333 0.250000
vt 0.583333 0.500000
vt 0.583333 0.750000
vt 0.583333 0.166667
vt 0.583333 0.416667
vt 0.500000 0.833333
vt 0.500000 0.750000
vt 0.500000 0.166667
vt 0.500000 0.416667
vt 0.500000 0.666667
vt 0.500000 0.083333
vt 0.541667 1.000000
vt 0.500000 0.916667
vt 0.500000 0.333333
vt 0.500000 0.583333
vt 0.541667 0.000000
vt 0.500000 0.250000
vt 0.500000 0.500000
vt 0.416667 0.583333
vt 0.458333 0.000000
vt 0.416667 0.083333
vt 0.416667 0.833333
vt 0.416667 0.333333
vt 0.416667 0.250000
vt 0.416667 0.500000
vt 0.416667 0.750000
vt 0.416667 0.166667
vt 0.416667 0.416667
vt 0.416667 0.666667
vt 0.458333 1.000000
vt 0.416667 0.916667
vt 0.333333 0.666667
vt 0.333333 0.083333
vt 0.375000 1.000000
vt 0.333333 0.916667
vt 0.333333 0.333333
vt 0.333333 0.583333
vt 0.375000 0.000000
vt 0.333333 0.833333
vt 0.333333 0.250000
vt 0.333333 0.500000
vt 0.333333 0.750000
vt 0.333333 0.166667
vt 0.333333 0.416667
vt 0.250000 0.500000
vt 0.250000 0.833333
vt 0.250000 0.750000
vt 0.250000 0.166667
vt 0.250000 0.416667
vt 0.250000 0.666667
vt 0.250000 0.083333
vt 0.291667 1.000000
vt 0.250000 0.916667
vt 0.250000 0.333333
vt 0.250000 0.583333
vt 0.291667 0.000000
vt 0.250000 0.250000
vt 0.166667 0.583333
vt 0.208333 0.000000
vt 0.166667 0.083333
vt 0.166667 0.833333
vt 0.166667 0.250000
vt 0.166667 0.500000
vt 0.166667 0.750000
vt 0.166667 0.166667
vt 0.166667 0.416667
vt 0.166667 0.666667
vt 0.208333 1.000000
vt 0.166667 0.916667
vt 0.166667 0.333333
vt 0.083333 0.500000
vt 0.083333 0.416667
vt 0.083333 0.666667
vt 0.083333 0.083333
vt 0.125000 1.000000
vt 0.083333 0.916667
vt 0.083333 0.333333
vt 0.083333 0.583333
vt 0.125000 0.000000
vt 0.083333 0.833333
vt 0.083333 0.250000
vt 0.083333 0.750000
vt 0.083333 0.166667
vt 0.000000 0.500000
vt 0.000000 0.833333
vt 0.000000 0.750000
vt 0.000000 0.166667
vt 0.000000 0.416667
vt 0.000000 0.666667
vt 0.000000 0.083333
vt 0.041667 1.000000
vt 0.000000 0.916667
vt 0.000000 0.333333
vt 0.000000 0.583333
vt 0.041667 0.000000
vt 0.000000 0.250000
vt 1.000000 0.416667
vt 0.916667 0.333333
vt 1.000000 0.333333
vt 1.000000 0.583333
vt 0.916667 0.666667
vt 0.916667 0.583333
vt 0.958333 0.000000
vt 1.000000 0.083333
vt 0.916667 0.083333
vt 1.000000 0.916667
vt 0.916667 0.833333
vt 1.000000 0.833333
vt 1.000000 0.250000
vt 0.916667 0.250000
vt 0.916667 0.500000
vt 1.000000 0.500000
vt 1.000000 0.750000
vt 0.916667 0.750000
vt 0.916667 0.166667
vt 1.000000 0.166667
vt 0.916667 0.416667
vt 1.000000 0.666667
vt 0.958333 1.000000
vt 0.916667 0.916667
vt 0.833333 0.500000
vt 0.833333 0.416667
vt 0.833333 0.666667
vt 0.833333 0.083333
vt 0.875000 1.000000
vt 0.833333 0.916667
vt 0.833333 0.333333
vt 0.833333 0.583333
vt 0.875000 0.000000
vt 0.833333 0.833333
vt 0.833333 0.250000
vt 0.833333 0.750000
vt 0.833333 0.166667
vt 0.791667 1.000000
vt 0.791667 0.000000
s 0
f 2/1/1 10/2/1 130/3/1
f 128/4/2 7/5/2 1/6/2
f 131/7/3 14/8/3 132/9/3
f 3/10/4 10/2/4 11/11/4
f 129/12/5 7/5/5 8/13/5
f 133/14/6 14/8/6 15/15/6
f 127/16/7 93/17/7 5/18/7
f 3/10/8 12/19/8 4/20/8
f 129/12/9 9/21/9 2/1/9
f 134/22/10 133/14/10 15/15/10
f 127/16/11 6/23/11 128/4/11
f 131/7/12 12/19/12 13/24/12
f 7/5/13 19/25/13 8/13/13
f 14/8/14 26/26/14 15/15/14
f 5/18/15 93/27/15 16/28/15
f 11/11/16 23/29/16 12/19/16
f 8/13/17 20/30/17 9/21/17
f 134/31/18 15/15/18 26/26/18
f 5/18/19 17/32/19 6/23/19
f 12/19/20 24/33/20 13/24/20
f 9/21/21 21/34/21 10/2/21
f 6/23/22 18/35/22 7/5/22
f 13/24/23 25/36/23 14/8/23
f 11/11/24 21/34/24 22/37/24
f 18/35/25 28/38/25 29/39/25
f 24/33/26 36/40/26 25/36/26
f 21/34/27 33/41/27 22/37/27
f 18/35/28 30/42/28 19/25/28
f 25/36/29 37/43/29 26/26/29
f 16/28/30 93/44/30 27/45/30
f 23/29/31 33/41/31 34/46/31
f 19/25/32 31/47/32 20/30/32
f 134/48/33 26/26/33 37/43/33
f 17/32/34 27/45/34 28/38/34
f 24/33/35 34/46/35 35/49/35
f 20/30/36 32/50/36 21/34/36
f 30/42/37 42/51/37 31/47/37
f 134/52/38 37/43/38 48/53/38
f 27/45/39 39/54/39 28/38/39
f 35/49/40 45/55/40 46/56/40
f 31/47/41 43/57/41 32/50/41
f 29/39/42 39/54/42 40/58/42
f 35/49/43 47/59/43 36/40/43
f 33/41/44 43/57/44 44/60/44
f 29/39/45 41/61/45 30/42/45
f 37/43/46 47/59/46 48/53/46
f 27/45/47 93/62/47 38/63/47
f 33/41/48 45/55/48 34/46/48
f 40/58/49 52/64/49 41/61/49
f 47/59/50 59/65/50 48/53/50
f 38/63/51 93/66/51 49/67/51
f 44/60/52 56/68/52 45/55/52
f 41/61/53 53/69/53 42/51/53
f 134/70/54 48/53/54 59/65/54
f 38/63/55 50/71/55 39/54/55
f 45/55/56 57/72/56 46/56/56
f 42/51/57 54/73/57 43/57/57
f 40/58/58 50/71/58 51/74/58
f 46/56/59 58/75/59 47/59/59
f 44/60/60 54/73/60 55/76/60
f 53/69/61 65/77/61 54/73/61
f 51/74/62 61/78/62 62/79/62
f 57/72/63 69/80/63 58/75/63
f 55/76/64 65/77/64 66/81/64
f 51/74/65 63/82/65 52/64/65
f 58/75/66 70/83/66 59/65/66
f 49/67/67 93/84/67 60/85/67
f 56/68/68 66/81/68 67/86/68
f 52/64/69 64/87/69 53/69/69
f 134/88/70 59/65/70 70/83/70
f 50/71/71 60/85/71 61/78/71
f 56/68/72 68/89/72 57/72/72
f 63/82/73 75/90/73 64/87/73
f 134/91/74 70/83/74 81/92/74
f 60/85/75 72/93/75 61/78/75
f 67/86/76 79/94/76 68/89/76
f 64/87/77 76/95/77 65/77/77
f 62/79/78 72/93/78 73/96/78
f 68/89/79 80/97/79 69/80/79
f 66/81/80 76/95/80 77/98/80
f 63/82/81 73/96/81 74/99/81
f 70/83/82 80/97/82 81/92/82
f 60/85/83 93/100/83 71/101/83
f 67/86/84 77/98/84 78/102/84
f 77/98/85 87/103/85 88/104/85
f 73/96/86 85/105/86 74/99/86
f 80/97/87 92/106/87 81/92/87
f 71/101/88 93/107/88 82/108/88
f 77/98/89 89/109/89 78/102/89
f 75/90/90 85/105/90 86/110/90
f 134/111/91 81/92/91 92/106/91
f 71/101/92 83/112/92 72/93/92
f 79/94/93 89/109/93 90/113/93
f 75/90/94 87/103/94 76/95/94
f 73/96/95 83/112/95 84/114/95
f 79/94/96 91/115/96 80/97/96
f 86/110/97 99/116/97 87/103/97
f 84/114/98 95/117/98 96/118/98
f 90/113/99 103/119/99 91/115/99
f 88/104/100 99/116/100 100/120/100
f 84/114/101 97/121/101 85/105/101
f 91/115/102 104/122/102 92/106/102
f 82/108/103 93/123/103 94/124/103
f 88/104/104 101/125/104 89/109/104
f 86/110/105 97/121/105 98/126/105
f 134/127/106 92/106/106 104/122/106
f 83/112/107 94/124/107 95/117/107
f 90/113/108 101/125/108 102/128/108
f 100/129/109 112/130/109 101/131/109
f 98/132/110 108/133/110 109/134/110
f 134/135/111 104/136/111 115/137/111
f 94/138/112 106/139/112 95/140/112
f 102/141/113 112/130/113 113/142/113
f 98/132/114 110/143/114 99/144/114
f 96/145/115 106/139/115 107/146/115
f 102/141/116 114/147/116 103/148/116
f 100/129/117 110/143/117 111/149/117
f 96/145/118 108/133/118 97/150/118
f 104/136/119 114/147/119 115/137/119
f 94/138/120 93/151/120 105/152/120
f 111/149/121 121/153/121 122/154/121
f 107/146/122 119/155/122 108/133/122
f 114/147/123 126/156/123 115/137/123
f 105/152/124 93/157/124 116/158/124
f 111/149/125 123/159/125 112/130/125
f 109/134/126 119/155/126 120/160/126
f 134/161/127 115/137/127 126/156/127
f 105/152/128 117/162/128 106/139/128
f 113/142/129 123/159/129 124/163/129
f 109/134/130 121/153/130 110/143/130
f 107/146/131 117/162/131 118/164/131
f 113/142/132 125/165/132 114/147/132
f 124/163/133 4/20/133 131/7/133
f 120/160/134 130/3/134 121/153/134
f 118/164/135 128/4/135 1/6/135
f 124/163/136 132/9/136 125/165/136
f 122/154/137 130/3/137 3/10/137
f 119/155/138 1/6/138 129/12/138
f 125/165/139 133/14/139 126/156/139
f 116/158/140 93/166/140 127/16/140
f 122/154/141 4/20/141 123/159/141
f 119/155/142 2/1/142 120/160/142
f 134/167/143 126/156/143 133/14/143
f 117/162/144 127/16/144 128/4/144
f 2/1/1 9/21/1 10/2/1
f 128/4/2 6/23/2 7/5/2
f 131/7/3 13/24/3 14/8/3
f 3/10/4 130/3/4 10/2/4
f 129/12/5 1/6/5 7/5/5
f 133/14/6 132/9/6 14/8/6
f 3/10/8 11/11/8 12/19/8
f 129/12/9 8/13/9 9/21/9
f 127/16/11 5/18/11 6/23/11
f 131/7/12 4/20/12 12/19/12
f 7/5/13 18/35/13 19/25/13
f 14/8/14 25/36/14 26/26/14
f 11/11/16 22/37/16 23/29/16
f 8/13/17 19/25/17 20/30/17
f 5/18/19 16/28/19 17/32/19
f 12/19/20 23/29/20 24/33/20
f 9/21/21 20/30/21 21/34/21
f 6/23/22 17/32/22 18/35/22
f 13/24/23 24/33/23 25/36/23
f 11/11/24 10/2/24 21/34/24
f 18/35/25 17/32/25 28/38/25
f 24/33/26 35/49/26 36/40/26
f 21/34/27 32/50/27 33/41/27
f 18/35/28 29/39/28 30/42/28
f 25/36/29 36/40/29 37/43/29
f 23/29/31 22/37/31 33/41/31
f 19/25/32 30/42/32 31/47/32
f 17/32/34 16/28/34 27/45/34
f 24/33/35 23/29/35 34/46/35
f 20/30/36 31/47/36 32/50/36
f 30/42/37 41/61/37 42/51/37
f 27/45/39 38/63/39 39/54/39
f 35/49/40 34/46/40 45/55/40
f 31/47/41 42/51/41 43/57/41
f 29/39/42 28/38/42 39/54/42
f 35/49/43 46/56/43 47/59/43
f 33/41/44 32/50/44 43/57/44
f 29/39/45 40/58/45 41/61/45
f 37/43/46 36/40/46 47/59/46
f 33/41/48 44/60/48 45/55/48
f 40/58/49 51/74/49 52/64/49
f 47/59/50 58/75/50 59/65/50
f 44/60/52 55/76/52 56/68/52
f 41/61/53 52/64/53 53/69/53
f 38/63/55 49/67/55 50/71/55
f 45/55/56 56/68/56 57/72/56
f 42/51/57 53/69/57 54/73/57
f 40/58/58 39/54/58 50/71/58
f 46/56/59 57/72/59 58/75/59
f 44/60/60 43/57/60 54/73/60
f 53/69/61 64/87/61 65/77/61
f 51/74/62 50/71/62 61/78/62
f 57/72/63 68/89/63 69/80/63
f 55/76/64 54/73/64 65/77/64
f 51/74/65 62/79/65 63/82/65
f 58/75/66 69/80/66 70/83/66
f 56/68/68 55/76/68 66/81/68
f 52/64/69 63/82/69 64/87/69
f 50/71/71 49/67/71 60/85/71
f 56/68/72 67/86/72 68/89/72
f 63/82/73 74/99/73 75/90/73
f 60/85/75 71/101/75 72/93/75
f 67/86/76 78/102/76 79/94/76
f 64/87/77 75/90/77 76/95/77
f 62/79/78 61/78/78 72/93/78
f 68/89/79 79/94/79 80/97/79
f 66/81/80 65/77/80 76/95/80
f 63/82/81 62/79/81 73/96/81
f 70/83/82 69/80/82 80/97/82
f 67/86/84 66/81/84 77/98/84
f 77/98/85 76/95/85 87/103/85
f 73/96/86 84/114/86 85/105/86
f 80/97/87 91/115/87 92/106/87
f 77/98/89 88/104/89 89/109/89
f 75/90/90 74/99/90 85/105/90
f 71/101/92 82/108/92 83/112/92
f 79/94/93 78/102/93 89/109/93
f 75/90/94 86/110/94 87/103/94
f 73/96/95 72/93/95 83/112/95
f 79/94/96 90/113/96 91/115/96
f 86/110/97 98/126/97 99/116/97
f 84/114/98 83/112/98 95/117/98
f 90/113/99 102/128/99 103/119/99
f 88/104/100 87/103/100 99/116/100
f 84/114/101 96/118/101 97/121/101
f 91/115/102 103/119/102 104/122/102
f 88/104/104 100/120/104 101/125/104
f 86/110/105 85/105/105 97/121/105
f 83/112/107 82/108/107 94/124/107
f 90/113/108 89/109/108 101/125/108
f 100/129/109 111/149/109 112/130/109
f 98/132/110 97/150/110 108/133/110
f 94/138/112 105/152/112 106/139/112
f 102/141/113 101/131/113 112/130/113
f 98/132/114 109/134/114 110/143/114
f 96/145/115 95/140/115 106/139/115
f 102/141/116 113/142/116 114/147/116
f 100/129/117 99/144/117 110/143/117
f 96/145/118 107/146/118 108/133/118
f 104/136/119 103/148/119 114/147/119
f 111/149/121 110/143/121 121/153/121
f 107/146/122 118/164/122 119/155/122
f 114/147/123 125/165/123 126/156/123
f 111/149/125 122/154/125 123/159/125
f 109/134/126 108/133/126 119/155/126
f 105/152/128 116/158/128 117/162/128
f 113/142/129 112/130/129 123/159/129
f 109/134/130 120/160/130 121/153/130
f 107/146/131 106/139/131 117/162/131
f 113/142/132 124/163/132 125/165/132
f 124/163/133 123/159/133 4/20/133
f 120/160/134 2/1/134 130/3/134
f 118/164/135 117/162/135 128/4/135
f 124/163/136 131/7/136 132/9/136
f 122/154/137 121/153/137 130/3/137
f 119/155/138 118/164/138 1/6/138
f 125/165/139 132/9/139 133/14/139
f 122/154/141 3/10/141 4/20/141
f 119/155/142 129/12/142 2/1/142
f 117/162/144 116/158/144 127/16/144
