# Blender 3.6.0
# www.blender.org
mtllib corn.mtl
o Cube
v 1.000000 -1.000000 -1.000000
v 0.000000 1.000000 0.000000
v 1.000000 -1.000000 1.000000
v -1.000000 -1.000000 -1.000000
v -1.000000 -1.000000 1.000000
vn -0.0000 0.4472 0.8944
vn -0.8944 0.4472 -0.0000
vn -0.0000 -1.0000 -0.0000
vn 0.8944 0.4472 -0.0000
vn -0.0000 0.4472 -0.8944
vt 0.375000 0.750000
vt 0.625000 1.000000
vt 0.375000 1.000000
vt 0.375000 0.000000
vt 0.625000 0.250000
vt 0.375000 0.250000
vt 0.125000 0.500000
vt 0.375000 0.500000
vt 0.625000 0.750000
vt 0.625000 0.500000
vt 0.125000 0.750000
s 0
usemtl Material
f 3/1/1 2/2/1 5/3/1
f 5/4/2 2/5/2 4/6/2
f 4/7/3 1/8/3 3/1/3
f 1/8/4 2/9/4 3/1/4
f 4/6/5 2/10/5 1/8/5
f 3/1/3 5/11/3 4/7/3
